<?xml version="1.0" encoding="utf-8"?>
<!-- Generator: Adobe Illustrator 19.0.1, SVG Export Plug-In . SVG Version: 6.00 Build 0)  -->
<svg version="1.1" id="Слой_1" xmlns="http://www.w3.org/2000/svg" xmlns:xlink="http://www.w3.org/1999/xlink" x="0px" y="0px"
	 viewBox="0 0 10 10" style="enable-background:new 0 0 10 10;" xml:space="preserve">
<g>
	<path style="&st0;" d="M9.1,0H6.2C5.7,0,5,0.3,4.6,0.7L0.3,5c-0.4,0.4-0.4,1,0,1.3l3.4,3.4c0.4,0.4,1,0.4,1.3,0l4.4-4.4
		C9.7,5,10,4.3,10,3.8V0.9C10,0.4,9.6,0,9.1,0z M7.8,3.1c-0.5,0-0.9-0.4-0.9-0.9c0-0.5,0.4-0.9,0.9-0.9s0.9,0.4,0.9,0.9
		S8.3,3.1,7.8,3.1z"/>
</g>
</svg>
